<svg width="187" height="249" viewBox="0 0 187 249" fill="none" xmlns="http://www.w3.org/2000/svg">
<path d="M88.5815 124.549C86.1466 116.767 86.1953 101.74 87.6075 101.74C91.6982 101.74 91.3086 119.685 88.5815 124.549ZM87.7536 147.503C84.0039 157.327 79.3289 168.561 73.9234 177.996C82.8352 174.592 92.9156 169.631 104.554 167.346C98.3698 162.677 92.4286 155.965 87.7536 147.503ZM41.9289 208.197C41.9289 208.586 48.357 205.571 58.9245 188.647C55.6617 191.711 44.7534 200.562 41.9289 208.197ZM120.771 77.8125H187V237.328C187 243.796 181.789 249 175.312 249H11.6875C5.21068 249 0 243.796 0 237.328V11.6719C0 5.20371 5.21068 0 11.6875 0H109.083V66.1406C109.083 72.5602 114.343 77.8125 120.771 77.8125ZM116.875 161.364C107.135 155.43 100.659 147.26 96.081 135.199C98.2724 126.202 101.73 112.536 99.1003 103.977C96.8115 89.6789 78.4523 91.0893 75.8227 100.67C73.3878 109.57 75.6279 122.117 79.7672 138.117C74.1182 151.54 65.7909 169.534 59.8984 179.844C59.8497 179.844 59.8497 179.893 59.801 179.893C46.6039 186.653 23.9594 201.534 33.2607 212.963C35.9878 216.319 41.0523 217.826 43.7307 217.826C52.4477 217.826 61.1159 209.072 73.4852 187.771C86.0492 183.637 99.8307 178.482 111.957 176.488C122.524 182.227 134.893 185.972 143.123 185.972C157.343 185.972 158.317 170.409 152.717 164.865C145.948 158.251 126.274 160.148 116.875 161.364ZM183.591 51.0645L135.867 3.4043C133.676 1.21582 130.705 0 127.589 0H124.667V62.25H187V59.2834C187 56.2195 185.783 53.2529 183.591 51.0645ZM147.506 175.224C149.503 173.911 146.289 169.437 126.663 170.847C144.73 178.531 147.506 175.224 147.506 175.224Z" fill="#FA7272"/>
</svg>
